<?xml version="1.0" encoding="UTF-8"?>
<svg id="Layer_2" data-name="Layer 2" xmlns="http://www.w3.org/2000/svg" viewBox="0 0 109.89 120.15">
  <defs>
    <style>
      .cls-1 {
        font-family: Roboto-Regular, Roboto;
        font-size: 39px;
      }

      .cls-3 {
        fill: #fff;
      }
    </style>
  </defs>
  <g id="Background">
    <g>
      <g>
        <path class="cls-3" d="m66.39,12.48l-26.86.08c-1.83,0-2.71.98-2.7,2.98l.11,38.09c0,2,.9,2.97,2.72,2.97l5.46-.02v4.92s3.19-2.89,3.19-2.89l3.2,2.87v-4.92s13.72-.04,13.72-.04c.86,0,1.56-.7,1.56-1.57v-3.85c.73-.14,1.26-.78,1.26-1.54l-.1-35.53c0-.86-.7-1.56-1.57-1.56Zm-22.03,13.34c0-.4.33-.73.73-.73h5.75v-5.8c0-.41.33-.74.74-.74h2.82c.41,0,.74.33.74.74v5.8h5.75c.4,0,.73.33.73.73v2.83c0,.4-.33.73-.73.73h-5.75v15.12c0,.41-.33.74-.74.74h-2.82c-.41,0-.74-.33-.74-.74v-15.12h-5.75c-.4,0-.73-.33-.73-.73v-2.83Zm.71,27.49v2.68h-5.46c-1.5,0-2.15-.72-2.15-2.41s.64-2.41,2.15-2.41h26.57v3.82c0,.55-.45.99-1,1h-13.73v-2.68h-6.38Z"/>
        <text class="cls-1" transform="translate(0 103.58)"><tspan x="0" y="0">Home</tspan></text>
      </g>
    </g>
  </g>
</svg>
