<?xml version="1.0" encoding="UTF-8"?>
<svg id="Layer_2" data-name="Layer 2" xmlns="http://www.w3.org/2000/svg" viewBox="0 0 65.59 73.11">
  <defs>
    <style>
      .cls-1 {
        fill: #e40521;
        stroke-width: 0px;
      }
    </style>
  </defs>
  <g id="Background">
    <g>
      <path class="cls-1" d="m32.24,0L9.83.06c-1.52,0-2.26.82-2.26,2.49l.09,31.79c0,1.67.75,2.48,2.27,2.47h4.56s5.32-.03,5.32-.03l11.46-.03c.72,0,1.3-.59,1.3-1.31v-3.21c.61-.12,1.05-.65,1.05-1.28l-.09-29.65C33.55.58,32.96,0,32.24,0ZM13.86,11.13c0-.34.27-.61.61-.61h4.8v-4.84c0-.34.28-.61.61-.61h2.35c.34,0,.61.28.61.61v4.84h4.8c.34,0,.61.27.61.61v2.36c0,.34-.27.61-.61.61h-4.8v12.62c0,.34-.28.61-.61.61h-2.35c-.34,0-.61-.28-.61-.61v-12.62h-4.8c-.34,0-.61-.27-.61-.61v-2.36Zm.6,25.18h-4.56c-1.26,0-1.79-.6-1.79-2.01s.54-2.01,1.79-2.01h22.18v3.19c0,.46-.37.83-.83.83H14.45Z"/>
      <path class="cls-1" d="m43.61,27.45c1.53,0,3,.62,4.08,1.72l15.62,15.62c3.03,3.03,3.03,7.95,0,10.98l-15.62,15.62c-1.07,1.1-2.54,1.72-4.07,1.72-3.21.03-5.84-2.56-5.86-5.77,0-.02,0-.04,0-.06v-6.62c-11.03-2.01-22.41,2.15-31.94,8.07-.59.37-1.27.57-1.97.58-2.19-.07-3.9-1.89-3.84-4.08.02-.61.18-1.21.47-1.75,7.41-14.04,21.46-21.34,37.28-22.66v-7.53c0-3.21,2.59-5.83,5.8-5.83.02,0,.04,0,.06,0h0Z"/>
    </g>
  </g>
</svg>